HIERARCHY
ROOT Hips
{
	OFFSET 0.00000 0.00000 0.00000
	CHANNELS 6 Xposition Yposition Zposition Zrotation Yrotation Xrotation 
	JOINT LHipJoint
	{
		OFFSET 0 0 0
		CHANNELS 3 Zrotation Yrotation Xrotation
		JOINT LeftHip
		{
			OFFSET 1.58895 -1.83665 0.71753
			CHANNELS 3 Zrotation Yrotation Xrotation
			JOINT LeftKnee
			{
				OFFSET 2.50528 -6.88321 0.00000
				CHANNELS 3 Zrotation Yrotation Xrotation
				JOINT LeftAnkle
				{
					OFFSET 2.63244 -7.23257 0.00000
					CHANNELS 3 Zrotation Yrotation Xrotation
					JOINT LeftToe
					{
						OFFSET 0.23691 -0.65090 1.72750
						CHANNELS 3 Zrotation Yrotation Xrotation
						End Site
						{
							OFFSET 0.00000 -0.00000 0.92561
						}
					}
				}
			}
		}
	}
	JOINT RHipJoint
	{
		OFFSET 0 0 0
		CHANNELS 3 Zrotation Yrotation Xrotation
		JOINT RightHip
		{
			OFFSET -1.51435 -1.83665 0.71753
			CHANNELS 3 Zrotation Yrotation Xrotation
			JOINT RightKnee
			{
				OFFSET -2.54551 -6.99375 0.00000
				CHANNELS 3 Zrotation Yrotation Xrotation
				JOINT RightAnkle
				{
					OFFSET -2.66027 -7.30903 0.00000
					CHANNELS 3 Zrotation Yrotation Xrotation
					JOINT RightToe
					{
						OFFSET -0.22981 -0.63138 2.03959
						CHANNELS 3 Zrotation Yrotation Xrotation
						End Site
						{
							OFFSET -0.00000 -0.00000 1.07060
						}
					}
				}
			}
		}
	}
	JOINT lowerback
	{
		OFFSET 0 0 0
		CHANNELS 3 Zrotation Yrotation Xrotation
		JOINT Chest
		{
			OFFSET -0.02651 1.86275 -0.11152
			CHANNELS 3 Zrotation Yrotation Xrotation
			JOINT Chest2
			{
				OFFSET 0.01019 1.86224 0.04087
				CHANNELS 3 Zrotation Yrotation Xrotation
				JOINT lowerneck
				{
					OFFSET 0 0 0
					CHANNELS 3 Zrotation Yrotation Xrotation
					JOINT Neck
					{
						OFFSET -0.01926 1.80512 0.08867
						CHANNELS 3 Zrotation Yrotation Xrotation
						JOINT Head
						{
							OFFSET 0.05516 1.76451 -0.38475
							CHANNELS 3 Zrotation Yrotation Xrotation
							End Site
							{
								OFFSET 0.01592 1.82587 -0.14001
							}
						}
					}
				}
				JOINT LeftCollar
				{
					OFFSET 0 0 0
					CHANNELS 3 Zrotation Yrotation Xrotation
					JOINT LeftShoulder
					{
						OFFSET 3.47116 1.51376 0.14491
CHANNELS 3 Zrotation Xrotation Yrotation
						JOINT LeftElbow
						{
OFFSET 0 -4.780950 0.000000
CHANNELS 3 Zrotation Xrotation Yrotation
							JOINT LeftWrist
							{
OFFSET 0 -3.586150 -0.000000
CHANNELS 3 Zrotation Xrotation Yrotation
								JOINT lhand
								{
									OFFSET 0 0 0
CHANNELS 3 Zrotation Xrotation Yrotation
									JOINT LFingers
									{
OFFSET 0 -0.659810 0.000000
CHANNELS 3 Zrotation Xrotation Yrotation
										End Site
										{
OFFSET 0 -0.531960 0.000000
										}
									}
								}
								JOINT LThumb
								{
OFFSET 0 0.000000 0.000000
CHANNELS 3 Zrotation Xrotation Yrotation
									End Site
									{
OFFSET 0 -0.540080 0.540080
									}
								}
							}
						}
					}
				}
				JOINT RightCollar
				{
					OFFSET 0 0 0
					CHANNELS 3 Zrotation Yrotation Xrotation
					JOINT RightShoulder
					{
						OFFSET -3.31725 1.61216 0.35156
CHANNELS 3 Zrotation Xrotation Yrotation
						JOINT RightElbow
						{
OFFSET 0 -4.489130 0.000000
CHANNELS 3 Zrotation Xrotation Yrotation
							JOINT RightWrist
							{
OFFSET 0 -3.705100 0.000000
CHANNELS 3 Zrotation Xrotation Yrotation
								JOINT rhand
								{
									OFFSET 0 0 0
CHANNELS 3 Zrotation Xrotation Yrotation
									JOINT RFingers
									{
OFFSET 0 -0.449140 0.000000
CHANNELS 3 Zrotation Xrotation Yrotation
										End Site
										{
OFFSET 0 -0.362110 0.000000
										}
									}
								}
								JOINT RThumb
								{
OFFSET 0 0.000000 0.000000
CHANNELS 3 Zrotation Xrotation Yrotation
									End Site
									{
OFFSET 0 -0.367630 0.367630
									}
								}
							}
						}
					}
				}
			}
		}
	}
}
MOTION
Frames: 10
Frame Time: 0.008333333333333333
-1.107600 18.146700 5.788500 -3.255500 -4.900000 0.010000 0.000000 0.000000 0.000000 -13.364800 0.002400 18.519600 0.757100 -5.557000 -15.504200 -0.936500 17.769900 -12.801100 0.313500 -3.599600 -9.952900 0.000000 0.000000 0.000000 18.874400 -3.669200 8.084000 0.000000 -0.000000 0.000000 -0.771700 -1.867800 -17.371100 -0.116000 -2.195600 6.046500 0.788800 0.630700 2.771600 1.653000 0.931900 -2.031800 1.204900 0.466100 -3.660300 -1.662400 0.029500 -10.308100 0.590200 0.223300 18.284800 0.489000 0.044100 7.302500 -0.000000 -0.000000 0.000000 -3.922700 13.497000 -28.303400 20.836100 -31.636600 5.963800 5.023900 8.031400 24.719900 0.000000 0.000000 0.000000 -7.125000 0.000000 0.000000 -14.904600 5.861400 -13.790700 -0.000000 -0.000000 0.000000 -1.733400 17.774800 28.911200 -22.524400 -33.564600 -6.873500 -8.542200 21.061100 26.615000 0.000000 0.000000 0.000000 7.125000 0.000000 -0.000000 22.934000 55.341400 -6.054500
-1.107683 18.147032 5.788500 -3.232434 -4.870296 0.020371 0.000000 0.000000 0.000000 -13.388779 -0.020749 18.494045 0.755275 -5.550528 -15.485697 -0.935007 17.756790 -12.793881 0.311675 -3.589063 -9.923279 0.000000 0.000000 0.000000 18.849757 -3.694589 8.067904 0.000000 0.000000 0.000000 -0.773608 -1.857512 -17.386450 -0.114009 -2.176848 5.994643 0.761917 0.622984 2.768530 1.641633 0.920118 -2.039516 1.208966 0.460790 -3.666606 -1.713593 -0.035716 -10.366844 0.599659 0.141905 18.341055 0.493315 0.002199 7.332287 0.000000 0.000000 0.000000 -3.913905 13.499489 -28.327545 20.837593 -31.638342 5.964547 5.031616 8.010491 24.711520 0.000000 0.000000 0.000000 -7.125000 0.000000 0.000000 -14.899954 5.868784 -13.783896 0.000000 0.000000 0.000000 -1.720788 17.765092 28.877845 -22.509216 -33.547757 -6.865120 -7.819932 20.800071 27.157717 0.000000 0.000000 0.000000 7.125000 0.000000 0.000000 24.001098 55.695025 -6.573653
-1.108162 18.147693 5.788764 -3.217940 -4.850088 0.028896 0.000000 0.000000 0.000000 -13.400228 -0.020290 18.477656 0.754834 -5.548936 -15.481175 -0.935096 17.748825 -12.761407 0.318290 -3.626466 -10.028117 0.000000 0.000000 0.000000 18.836391 -3.712395 8.057017 0.000000 0.000000 0.000000 -0.776967 -1.843003 -17.415120 -0.112611 -2.163570 5.957886 0.735430 0.609926 2.777000 1.635080 0.901742 -2.056399 1.217977 0.452248 -3.688870 -1.726738 -0.049166 -10.363469 0.620130 0.121639 18.360052 0.500333 -0.006730 7.338070 0.000000 0.000000 0.000000 -3.911507 13.529213 -28.333951 20.847594 -31.650042 5.969778 5.099143 7.989319 24.685994 0.000000 0.000000 0.000000 -7.125000 0.000000 0.000000 -14.859434 5.887709 -13.738120 0.000000 0.000000 0.000000 -1.713716 17.778597 28.860911 -22.501220 -33.538827 -6.860696 -7.597646 20.736543 27.219247 0.000000 0.000000 0.000000 7.125000 0.000000 0.000000 24.259138 55.707921 -6.655933
-1.108547 18.148342 5.789096 -3.215786 -4.840794 0.033129 0.000000 0.000000 0.000000 -13.399198 -0.014176 18.468182 0.754311 -5.547039 -15.475762 -0.935349 17.743067 -12.732633 0.326107 -3.670330 -10.150995 0.000000 0.000000 0.000000 18.834839 -3.721150 8.053442 0.000000 0.000000 0.000000 -0.778500 -1.827893 -17.424680 -0.115279 -2.188929 6.028093 0.718290 0.599353 2.785173 1.635786 0.887288 -2.068702 1.229048 0.445514 -3.706255 -1.741356 -0.044553 -10.330407 0.649119 0.124349 18.356954 0.512403 -0.003867 7.331052 0.000000 0.000000 0.000000 -3.917804 13.560833 -28.338026 20.861747 -31.666612 5.977194 5.177174 7.971208 24.661520 0.000000 0.000000 0.000000 -7.125000 0.000000 0.000000 -14.812586 5.904771 -13.686634 0.000000 0.000000 0.000000 -1.724460 17.801421 28.869543 -22.508972 -33.547446 -6.864974 -7.491066 20.708165 27.191201 0.000000 0.000000 0.000000 7.125000 0.000000 0.000000 24.344601 55.661643 -6.653476
-1.108636 18.148700 5.789268 -3.222084 -4.836532 0.034833 0.000000 0.000000 0.000000 -13.388892 0.000241 18.458018 0.753800 -5.545168 -15.470341 -0.934188 17.728325 -12.708873 0.331042 -3.697861 -10.228141 0.000000 0.000000 0.000000 18.840474 -3.725509 8.053226 0.000000 0.000000 0.000000 -0.777543 -1.818322 -17.410505 -0.119493 -2.228822 6.138554 0.714793 0.595265 2.791128 1.637269 0.881916 -2.070526 1.232820 0.442946 -3.711506 -1.753701 -0.036097 -10.313320 0.660791 0.135669 18.350019 0.519277 0.001787 7.325558 0.000000 0.000000 0.000000 -3.919471 13.570702 -28.355753 20.870662 -31.677067 5.981881 5.234707 7.955692 24.654061 0.000000 0.000000 0.000000 -7.125000 0.000000 0.000000 -14.778017 5.907110 -13.651634 0.000000 0.000000 0.000000 -1.740715 17.817538 28.885913 -22.526045 -33.566447 -6.874408 -7.428596 20.686260 27.175216 0.000000 0.000000 0.000000 7.125000 0.000000 0.000000 24.394944 55.634914 -6.652298
-1.108545 18.148759 5.789185 -3.228550 -4.830607 0.036905 0.000000 0.000000 0.000000 -13.376670 0.024604 18.442951 0.753830 -5.545204 -15.470327 -0.931095 17.700420 -12.688710 0.331368 -3.699764 -10.233599 0.000000 0.000000 0.000000 18.846014 -3.730855 8.051094 0.000000 0.000000 0.000000 -0.775158 -1.820004 -17.385789 -0.120791 -2.240865 6.171932 0.719424 0.597405 2.796783 1.632663 0.884805 -2.062000 1.225288 0.444182 -3.705812 -1.747484 -0.029945 -10.343721 0.638775 0.147947 18.352572 0.512272 0.006149 7.331700 0.000000 0.000000 0.000000 -3.905685 13.547694 -28.392069 20.869478 -31.675708 5.981289 5.262174 7.942876 24.658703 0.000000 0.000000 0.000000 -7.125000 0.000000 0.000000 -14.761510 5.900251 -13.637227 0.000000 0.000000 0.000000 -1.745260 17.813952 28.890015 -22.538872 -33.580698 -6.881499 -7.627517 20.758369 27.043382 0.000000 0.000000 0.000000 7.125000 0.000000 0.000000 24.113142 55.553477 -6.522536
-1.108793 18.149091 5.789102 -3.225480 -4.823389 0.039726 0.000000 0.000000 0.000000 -13.376504 0.031324 18.433741 0.753996 -5.545785 -15.472152 -0.928274 17.682664 -12.700492 0.326722 -3.673877 -10.160999 0.000000 0.000000 0.000000 18.843856 -3.736746 8.046032 0.000000 0.000000 0.000000 -0.773250 -1.835105 -17.371767 -0.117389 -2.208838 6.083318 0.708389 0.600226 2.800600 1.625195 0.887626 -2.047480 1.223546 0.445759 -3.693034 -1.730641 -0.038574 -10.404705 0.618530 0.138156 18.363027 0.502067 0.000839 7.346220 0.000000 0.000000 0.000000 -3.891082 13.507453 -28.424843 20.870474 -31.676870 5.981787 5.277109 7.939391 24.621864 0.000000 0.000000 0.000000 -7.125000 0.000000 0.000000 -14.752632 5.934602 -13.618393 0.000000 0.000000 0.000000 -1.739452 17.786323 28.890098 -22.534806 -33.576217 -6.879259 -8.632220 21.132903 26.469218 0.000000 0.000000 0.000000 7.125000 0.000000 0.000000 22.752490 55.224992 -5.937503
-1.108962 18.149746 5.789019 -3.232268 -4.826513 0.048850 0.000000 0.000000 0.000000 -13.371733 0.005724 18.436894 0.754242 -5.546931 -15.475432 -0.930220 17.706602 -12.736999 0.317146 -3.620114 -10.010264 0.000000 0.000000 0.000000 18.853658 -3.730597 8.036365 0.000000 0.000000 0.000000 -0.772150 -1.846247 -17.365582 -0.116250 -2.198061 6.053285 0.711413 0.601270 2.812416 1.617324 0.889154 -2.050574 1.213561 0.446366 -3.702719 -1.681234 -0.051647 -10.373091 0.566691 0.120528 18.303103 0.475136 -0.008673 7.321309 0.000000 0.000000 0.000000 -3.879307 13.511167 -28.426104 20.887549 -31.696858 5.990769 5.217303 7.957076 24.630354 0.000000 0.000000 0.000000 -7.125000 0.000000 0.000000 -14.788599 5.931541 -13.654907 0.000000 0.000000 0.000000 -1.736634 17.790448 28.919431 -22.541083 -33.583130 -6.882755 -10.439765 21.761881 25.430366 0.000000 0.000000 0.000000 7.125000 0.000000 0.000000 20.348209 54.602956 -4.965027
-1.108681 18.149836 5.788936 -3.251948 -4.826216 0.057632 0.000000 0.000000 0.000000 -13.350767 -0.000528 18.436106 0.755320 -5.550708 -15.486212 -0.933506 17.724963 -12.715627 0.315665 -3.611900 -9.987272 0.000000 0.000000 0.000000 18.875387 -3.728016 8.027021 0.000000 0.000000 0.000000 -0.771326 -1.850905 -17.359098 -0.116765 -2.202970 6.066852 0.739941 0.600352 2.832610 1.608613 0.889436 -2.059690 1.188306 0.445607 -3.723020 -1.572027 -0.017712 -10.289246 0.453866 0.167737 18.202707 0.424286 0.011676 7.273401 0.000000 0.000000 0.000000 -3.864547 13.527988 -28.411532 20.904418 -31.716587 5.999596 5.125133 7.999436 24.676731 0.000000 0.000000 0.000000 -7.125000 0.000000 0.000000 -14.843882 5.894505 -13.720649 0.000000 0.000000 0.000000 -1.729686 17.808117 28.937433 -22.558735 -33.602720 -6.892528 -11.567691 22.170916 24.776785 0.000000 0.000000 0.000000 7.125000 0.000000 0.000000 18.864072 54.199812 -4.388060
-1.108266 18.149660 5.788900 -3.276410 -4.821206 0.063550 0.000000 0.000000 0.000000 -13.324402 -0.013174 18.441417 0.756741 -5.555692 -15.500548 -0.937157 17.744815 -12.690373 0.314511 -3.605378 -9.969011 0.000000 0.000000 0.000000 18.901218 -3.731420 8.020896 0.000000 0.000000 0.000000 -0.771467 -1.849436 -17.359940 -0.116779 -2.203173 6.067502 0.769677 0.600167 2.851522 1.605074 0.890802 -2.063418 1.167681 0.445427 -3.737127 -1.440360 0.053270 -10.207489 0.337895 0.262576 18.114254 0.373104 0.056146 7.229453 0.000000 0.000000 0.000000 -3.859196 13.524793 -28.393711 20.906932 -31.719537 6.000923 5.061127 8.049193 24.707176 0.000000 0.000000 0.000000 -7.125000 0.000000 0.000000 -14.882226 5.870447 -13.765808 0.000000 0.000000 0.000000 -1.728951 17.813199 28.950758 -22.572668 -33.618182 -6.900264 -11.901716 22.308201 24.496394 0.000000 0.000000 0.000000 7.125000 0.000000 0.000000 18.380386 53.996291 -4.172859
